<?xml version="1.0" standalone="no"?>
<!DOCTYPE svg PUBLIC "-//W3C//DTD SVG 20010904//EN"
 "http://www.w3.org/TR/2001/REC-SVG-20010904/DTD/svg10.dtd">
<svg version="1.0" xmlns="http://www.w3.org/2000/svg"
 width="628.000000pt" height="628.000000pt" viewBox="0 0 628.000000 628.000000"
 preserveAspectRatio="xMidYMid meet">
<metadata>
Created by potrace 1.14, written by Peter Selinger 2001-2017
</metadata>
<g transform="translate(0.000000,628.000000) scale(0.100000,-0.100000)"
fill="#000000" stroke="none">
<path d="M1018 5635 c-2 -2 -30 -5 -63 -6 -33 -2 -64 -5 -70 -8 -10 -6 -13 -6
-56 -15 -91 -19 -272 -121 -363 -204 -20 -18 -36 -30 -36 -28 0 5 -147 -150
-170 -180 -41 -51 -59 -82 -53 -88 3 -3 2 -6 -4 -6 -15 0 -87 -174 -93 -225 0
-3 0 -6 -1 -7 -5 -16 -10 -89 -10 -153 0 -78 2 -107 17 -190 9 -47 7 -38 23
-95 7 -25 14 -49 16 -55 1 -5 4 -17 7 -25 3 -8 16 -44 28 -80 12 -36 28 -78
35 -95 15 -33 95 -230 127 -310 11 -27 21 -58 21 -67 1 -10 4 -18 8 -18 4 0 9
-10 12 -22 2 -13 12 -50 21 -83 10 -33 19 -76 21 -95 14 -125 10 -154 -28
-193 -17 -18 -66 -71 -107 -116 -115 -128 -129 -143 -170 -186 -44 -48 -73
-124 -66 -175 6 -44 35 -102 47 -95 5 4 6 -1 3 -9 -4 -11 0 -16 11 -16 9 0 13
-4 10 -10 -3 -5 -2 -10 2 -10 5 0 25 -15 45 -32 19 -18 68 -62 108 -98 39 -36
94 -86 121 -112 27 -26 49 -45 49 -43 0 2 20 -16 45 -42 25 -25 45 -42 45 -39
0 4 14 -9 31 -29 17 -19 35 -32 40 -29 5 3 8 2 7 -3 -3 -9 36 -48 148 -148 83
-73 166 -149 211 -192 18 -17 33 -30 33 -28 0 2 21 -17 48 -43 169 -167 226
-206 297 -204 91 3 107 14 273 197 44 49 67 58 206 79 21 4 48 8 60 11 12 2
37 7 56 10 19 2 46 7 60 10 21 5 56 10 120 19 8 2 35 6 60 11 25 4 54 9 65 11
11 1 20 3 20 4 0 1 14 4 30 6 17 3 53 9 80 14 28 6 64 12 82 14 18 3 40 7 50
10 10 3 36 7 58 10 22 3 51 8 65 10 13 3 40 8 60 11 20 3 45 7 55 9 11 2 40 7
65 11 25 4 54 9 65 12 29 6 56 11 90 17 104 17 320 54 351 60 12 2 39 7 60 10
22 4 75 13 119 21 45 9 96 18 115 21 19 3 46 7 60 10 14 3 36 6 50 8 14 2 40
7 58 10 17 3 44 8 60 11 15 3 38 7 52 10 13 2 42 7 65 10 22 3 47 8 56 11 9 2
32 7 50 9 19 2 57 9 84 14 37 7 54 6 65 -3 19 -16 100 -48 100 -40 0 4 6 2 13
-3 6 -6 24 -13 39 -17 15 -3 40 -11 55 -17 15 -6 29 -10 30 -10 2 0 22 -7 45
-15 24 -9 48 -17 53 -18 6 -1 15 -4 20 -8 12 -7 50 7 60 22 22 36 41 164 39
266 -2 102 -4 123 -21 199 -10 42 -10 45 -13 48 -1 1 -3 9 -5 17 -2 8 -9 29
-16 45 -6 17 -13 37 -15 45 -5 25 -44 50 -70 46 -13 -3 -38 -14 -54 -26 -17
-12 -30 -18 -30 -14 0 3 -7 1 -15 -6 -8 -7 -15 -9 -15 -4 0 5 -4 4 -8 -2 -4
-6 -52 -34 -107 -63 -54 -28 -108 -59 -118 -68 -10 -10 -38 -18 -65 -19 -26
-1 -47 -3 -47 -4 0 -1 -29 -3 -65 -5 -36 -2 -92 -7 -125 -10 -33 -3 -96 -8
-140 -10 -44 -3 -98 -7 -120 -10 -22 -3 -74 -7 -115 -10 -41 -3 -93 -7 -115
-9 -22 -3 -78 -7 -125 -11 -47 -3 -112 -8 -145 -11 -33 -3 -80 -7 -105 -9 -25
-2 -76 -6 -115 -9 -38 -3 -101 -8 -140 -11 -38 -3 -88 -8 -110 -10 -22 -2 -80
-7 -130 -10 -85 -6 -151 -12 -220 -19 -47 -5 -48 2 -8 46 60 64 94 101 158
172 33 36 76 84 95 104 19 21 76 83 125 137 50 54 100 108 113 121 13 13 21
24 19 24 -2 0 20 24 50 54 29 30 53 60 53 66 0 6 5 8 10 5 6 -3 10 -3 10 2 0
4 26 36 58 70 31 34 80 87 107 118 28 31 64 70 80 88 113 121 142 160 165 218
13 34 26 69 28 78 13 66 16 95 16 161 0 79 -17 159 -42 198 -8 12 -11 22 -8
22 13 0 -79 126 -128 176 -55 55 -159 134 -176 134 -5 0 -10 5 -10 10 0 6 -6
10 -14 10 -8 0 -16 3 -18 8 -7 16 -247 126 -256 117 -3 -2 -16 5 -30 15 -13
11 -29 20 -34 20 -12 0 -141 62 -148 70 -3 4 -17 13 -32 21 -26 14 -144 115
-205 177 -18 17 -37 32 -43 32 -6 0 -8 5 -5 10 3 6 -1 10 -9 10 -9 0 -16 4
-16 9 0 21 -72 53 -119 53 -68 0 -123 -33 -176 -107 -13 -19 -15 -19 -44 15
-17 19 -30 38 -31 42 -1 22 -320 342 -320 321 0 -3 -13 7 -30 20 -16 14 -39
28 -50 32 -11 3 -20 11 -20 16 0 6 -4 8 -9 5 -5 -4 -11 -2 -13 2 -6 14 -131
70 -198 87 -36 10 -87 19 -115 22 -27 2 -55 6 -62 8 -6 2 -13 2 -15 0z m77
-320 c58 -11 115 -29 115 -38 0 -4 3 -6 8 -4 4 3 23 -3 42 -14 19 -10 43 -21
53 -25 9 -3 17 -11 17 -16 0 -5 4 -7 9 -4 5 4 11 3 13 -1 3 -8 74 -63 81 -63
2 0 26 -20 53 -45 27 -25 52 -45 56 -45 5 0 8 -8 8 -17 0 -9 3 -14 6 -10 4 3
27 -18 51 -48 25 -30 49 -55 54 -55 5 0 8 -3 7 -7 -1 -5 11 -27 26 -51 l29
-43 -24 -26 c-13 -14 -37 -41 -54 -58 -112 -120 -145 -157 -145 -159 0 -2 -17
-21 -37 -43 -21 -21 -74 -79 -118 -127 -44 -49 -97 -106 -118 -127 -21 -22
-37 -39 -34 -39 2 0 -33 -39 -79 -87 -45 -48 -80 -91 -78 -95 3 -4 -2 -8 -10
-8 -9 0 -16 -3 -16 -8 0 -4 -25 -32 -55 -63 -29 -31 -51 -59 -48 -63 4 -3 1
-6 -5 -6 -12 0 -92 -82 -82 -84 3 -1 -16 -21 -42 -45 -26 -24 -45 -48 -41 -54
3 -5 1 -7 -5 -3 -6 3 -14 1 -18 -6 -5 -9 -11 -1 -16 22 -12 52 -15 62 -27 93
-6 15 -8 27 -6 27 3 0 -6 25 -20 56 -14 31 -25 60 -25 64 0 4 -19 47 -42 96
-23 49 -42 92 -42 95 -1 3 -12 28 -25 55 -13 27 -27 58 -32 69 -45 110 -49
119 -78 223 -19 64 -26 251 -11 282 4 8 15 33 25 55 28 67 80 136 163 220 43
44 86 85 94 90 8 6 35 23 59 39 24 17 49 35 54 41 13 14 129 53 185 63 46 8
72 7 125 -3z"/>
<path d="M4847 2915 c-17 -13 -22 -51 -9 -71 4 -7 36 -15 72 -18 36 -4 77 -9
90 -11 101 -21 134 -10 128 42 -2 23 -10 30 -42 41 -79 26 -214 35 -239 17z"/>
<path d="M5428 2738 c-21 -7 -28 -16 -28 -34 0 -33 17 -64 34 -64 8 0 16 -7
20 -15 3 -8 12 -15 21 -15 8 0 15 -4 15 -10 0 -5 6 -10 13 -10 7 0 20 -8 29
-17 22 -23 48 -45 48 -40 0 3 34 -29 75 -69 75 -75 103 -88 131 -60 27 27 15
55 -51 120 -36 35 -79 75 -96 88 -17 12 -40 31 -52 42 -37 31 -105 76 -115 76
-6 0 -12 4 -14 9 -1 4 -15 4 -30 -1z"/>
<path d="M4836 2603 c-10 -24 -7 -63 5 -63 5 0 7 -5 3 -12 -4 -7 -3 -8 4 -4 6
4 19 2 29 -3 10 -5 56 -28 102 -51 75 -37 87 -40 108 -29 15 8 23 21 23 40 0
33 -23 51 -125 99 -79 37 -140 47 -149 23z"/>
<path d="M4781 2313 c-17 -37 -6 -58 40 -78 22 -10 49 -27 61 -37 11 -9 26
-15 32 -11 6 3 8 3 5 -1 -4 -4 16 -31 45 -61 28 -29 63 -67 79 -84 18 -20 33
-28 45 -24 48 17 54 47 20 96 -32 47 -188 196 -188 180 0 -3 -8 1 -17 9 -22
18 -49 29 -84 34 -20 2 -29 -3 -38 -23z"/>
<path d="M5375 2268 c-41 -23 -39 -53 7 -104 70 -76 179 -244 185 -283 1 -8
12 -25 26 -38 20 -20 27 -22 50 -14 15 6 28 15 28 21 1 5 2 16 3 23 2 14 -46
120 -56 125 -5 2 -8 8 -8 13 0 8 -32 61 -62 104 -28 40 -117 140 -133 151 -15
10 -25 10 -40 2z"/>
<path d="M5949 2147 c-12 -26 -5 -46 41 -122 35 -58 130 -251 130 -264 0 -12
29 -35 48 -37 28 -5 52 16 52 43 0 30 -112 263 -167 347 -30 47 -41 56 -65 56
-20 0 -32 -7 -39 -23z"/>
<path d="M5207 1802 c-9 -2 -15 -8 -12 -13 4 -5 -1 -9 -9 -9 -9 0 -13 -7 -11
-17 33 -174 47 -276 47 -333 -1 -47 8 -60 46 -65 27 -3 35 1 47 24 8 16 13 30
11 32 -2 2 -7 42 -10 88 -4 46 -12 106 -17 135 -6 28 -11 58 -11 66 -1 8 -5
21 -11 28 -5 6 -6 12 -3 12 12 0 -14 39 -32 48 -9 5 -25 7 -35 4z"/>
<path d="M5712 1512 c-33 -5 -39 -31 -41 -161 -1 -97 2 -117 16 -131 18 -16
49 -15 69 1 11 9 18 96 16 203 -1 67 -20 95 -60 88z"/>
</g>
</svg>
